M48
; DRILL file {KiCad (7.0.0)} date Wed Feb 15 20:10:16 2023
; FORMAT={-:-/ absolute / inch / decimal}
; #@! TF.CreationDate,2023-02-15T20:10:16+09:00
; #@! TF.GenerationSoftware,Kicad,Pcbnew,(7.0.0)
; #@! TF.FileFunction,Plated,1,2,PTH
FMAT,2
INCH
; #@! TA.AperFunction,Plated,PTH,ViaDrill
T1C0.0157
; #@! TA.AperFunction,Plated,PTH,ComponentDrill
T2C0.0394
; #@! TA.AperFunction,Plated,PTH,ComponentDrill
T3C0.0709
; #@! TA.AperFunction,Plated,PTH,ComponentDrill
T4C0.1063
%
G90
G05
T1
X1.05Y-3.2
X1.05Y-3.3
X1.05Y-3.4
X1.05Y-3.5
X1.05Y-3.6
X1.1Y-2.1
X1.1Y-2.2
X1.1Y-2.3
X1.1Y-2.45
X1.1Y-2.55
X1.1Y-2.65
X1.1Y-2.75
X1.1Y-2.85
X1.1Y-2.95
X1.15Y-2.05
X1.15Y-2.15
X1.15Y-2.25
X1.15Y-2.5
X1.15Y-2.6
X1.15Y-2.7
X1.15Y-2.8
X1.15Y-2.9
X1.15Y-3.6
X1.2Y-2.0
X1.2Y-2.1
X1.2Y-2.2
X1.2Y-2.3
X1.2Y-2.45
X1.2Y-2.55
X1.2Y-2.65
X1.2Y-2.75
X1.25Y-2.05
X1.25Y-2.15
X1.25Y-2.25
X1.25Y-2.5
X1.25Y-2.6
X1.25Y-2.7
X1.25Y-3.5
X1.25Y-3.6
X1.3Y-2.95
X1.3005Y-1.5933
X1.3038Y-2.7822
X1.35Y-1.95
X1.35Y-2.05
X1.35Y-2.15
X1.35Y-2.25
X1.35Y-2.5
X1.35Y-2.6
X1.3841Y-1.749
X1.3967Y-3.0033
X1.4Y-1.9
X1.4Y-2.0
X1.4Y-2.2
X1.4Y-2.3
X1.4Y-2.45
X1.4Y-2.55
X1.4Y-3.2
X1.4Y-3.3
X1.45Y-1.95
X1.45Y-2.25
X1.45Y-2.5
X1.45Y-2.75
X1.45Y-2.85
X1.4551Y-3.0776
X1.4551Y-3.0776
X1.4551Y-3.0776
X1.4794Y-1.5103
X1.5Y-2.45
X1.5Y-2.55
X1.5Y-2.8
X1.5Y-2.9
X1.5Y-3.2
X1.5Y-3.3
X1.5Y-3.4
X1.55Y-2.75
X1.55Y-2.85
X1.55Y-3.25
X1.55Y-3.35
X1.55Y-3.45
X1.5696Y-1.4543
X1.6Y-1.5
X1.6Y-1.9
X1.6Y-2.0
X1.6Y-2.8
X1.6Y-2.9
X1.6Y-3.2
X1.6Y-3.3
X1.6Y-3.4
X1.65Y-1.45
X1.65Y-2.85
X1.65Y-2.95
X1.65Y-3.25
X1.65Y-3.35
X1.65Y-3.45
X1.6972Y-3.1028
X1.7Y-1.5
X1.7Y-1.6
X1.7Y-2.9
X1.7Y-3.3
X1.7Y-3.4
X1.7472Y-3.1528
X1.75Y-1.45
X1.75Y-1.65
X1.75Y-1.75
X1.75Y-1.85
X1.75Y-2.85
X1.75Y-2.95
X1.75Y-3.35
X1.75Y-3.45
X1.7972Y-3.2028
X1.8Y-1.5
X1.8Y-1.8
X1.8Y-1.9
X1.8Y-2.9
X1.8Y-3.0
X1.8Y-3.4
X1.8297Y-1.4392
X1.85Y-1.75
X1.85Y-1.85
X1.85Y-2.45
X1.85Y-2.55
X1.85Y-2.85
X1.85Y-2.95
X1.85Y-3.05
X1.85Y-3.35
X1.85Y-3.45
X1.8921Y-3.2079
X1.9Y-2.5
X1.9Y-2.9
X1.9Y-3.0
X1.9Y-3.1
X1.9Y-3.4
X1.9045Y-1.4725
X1.9106Y-1.6351
X1.95Y-3.05
X1.95Y-3.35
X1.95Y-3.45
X1.9921Y-3.2079
X2.0Y-3.0
X2.0Y-3.1
X2.0Y-3.4
X2.05Y-3.05
X2.05Y-3.35
X2.05Y-3.45
X2.0921Y-3.2079
X2.1Y-3.0
X2.1Y-3.1
X2.1Y-3.4
X2.15Y-3.05
X2.15Y-3.35
X2.15Y-3.45
X2.1668Y-1.4384
X2.1806Y-1.6175
X2.1921Y-3.2079
X2.2Y-3.0
X2.2Y-3.1
X2.2Y-3.4
X2.25Y-3.05
X2.25Y-3.35
X2.25Y-3.45
X2.2748Y-1.4374
X2.2921Y-3.2079
X2.3Y-3.0
X2.3Y-3.1
X2.3Y-3.4
X2.3408Y-2.815
X2.35Y-2.95
X2.35Y-3.05
X2.35Y-3.35
X2.3673Y-2.0152
X2.4Y-2.9
X2.4Y-3.0
X2.4Y-3.1
X2.4Y-3.2
X2.4Y-3.4
X2.4345Y-1.8005
X2.45Y-2.95
X2.45Y-3.05
X2.45Y-3.35
X2.5Y-2.9
X2.5Y-3.0
X2.5Y-3.1
X2.5Y-3.3
X2.5Y-3.4
X2.5012Y-3.1988
X2.5437Y-1.5006
X2.55Y-2.95
X2.55Y-3.05
X2.55Y-3.35
X2.55Y-3.45
X2.5669Y-2.5043
X2.5757Y-2.6951
X2.6Y-2.8
X2.6Y-2.9
X2.6Y-3.0
X2.6Y-3.1
X2.6Y-3.3
X2.6Y-3.4
X2.6012Y-3.1988
X2.65Y-2.85
X2.65Y-2.95
X2.65Y-3.05
X2.65Y-3.35
X2.65Y-3.45
X2.6545Y-2.1678
X2.7Y-2.8
X2.7Y-2.9
X2.7Y-3.0
X2.7Y-3.1
X2.7Y-3.3
X2.7Y-3.4
X2.7012Y-3.1988
X2.75Y-3.35
X2.75Y-3.45
X2.767Y-1.55
X2.769Y-2.3248
X2.8Y-2.9
X2.8Y-3.0
X2.8Y-3.1
X2.8Y-3.3
X2.8Y-3.4
X2.8012Y-3.1988
X2.85Y-2.95
X2.85Y-3.05
X2.85Y-3.35
X2.9Y-2.9
X2.9Y-3.0
X2.9Y-3.1
X2.9Y-3.3
X2.9Y-3.4
X2.9012Y-3.1988
X2.9333Y-1.613
X2.95Y-2.95
X2.95Y-3.05
X2.95Y-3.35
X3.0Y-2.9
X3.0Y-3.0
X3.0Y-3.1
X3.0Y-3.2
X3.0Y-3.3
X3.0Y-3.4
X3.05Y-2.95
X3.05Y-3.05
X3.05Y-3.35
X3.1Y-2.9
X3.1Y-3.0
X3.1Y-3.1
X3.1Y-3.2
X3.1Y-3.3
X3.1Y-3.4
X3.15Y-2.95
X3.15Y-3.05
X3.15Y-3.35
X3.2Y-2.35
X3.2Y-2.8
X3.2Y-2.9
X3.2Y-3.0
X3.2Y-3.4
X3.25Y-1.9
X3.25Y-2.0
X3.25Y-2.1
X3.25Y-2.4
X3.25Y-2.85
X3.25Y-2.95
X3.25Y-3.05
X3.3Y-1.4689
X3.3Y-1.95
X3.3Y-2.05
X3.3Y-2.15
X3.35Y-1.9
X3.35Y-2.0
X3.35Y-2.1
X3.35Y-2.2
X3.4Y-1.95
X3.4Y-2.05
X3.4Y-2.15
X3.4Y-2.25
X3.4Y-2.6
X3.45Y-2.0
X3.45Y-2.1
X3.45Y-2.2
X3.45Y-2.3
X3.45Y-2.65
X3.5Y-2.05
X3.5Y-2.15
X3.5Y-2.25
X3.5Y-2.35
X3.5Y-2.6
X3.55Y-2.1
X3.55Y-2.2
X3.55Y-2.3
X3.55Y-2.65
X3.55Y-2.75
X3.55Y-2.85
X3.55Y-2.95
X3.55Y-3.05
X3.6Y-2.15
X3.6Y-2.25
X3.6Y-2.8
X3.6Y-2.9
X3.6Y-3.0
X3.65Y-2.2
X3.65Y-2.3
X3.65Y-2.75
X3.65Y-2.85
X3.65Y-2.95
X3.65Y-3.05
X3.6624Y-2.5507
X3.7Y-2.25
X3.7Y-2.8
X3.7Y-2.9
X3.7Y-3.0
X3.7023Y-2.5477
X3.7058Y-2.5
X3.7184Y-2.4509
X3.75Y-1.75
X3.75Y-2.85
X3.75Y-2.95
X3.75Y-3.05
X3.7665Y-2.6089
X3.8Y-1.7
X3.8Y-1.8
X3.8Y-2.9
X3.8Y-3.0
X3.8402Y-2.3478
X3.85Y-1.45
X3.85Y-1.65
X3.85Y-1.75
X3.85Y-2.15
X3.85Y-2.85
X3.85Y-2.95
X3.85Y-3.05
X3.9Y-1.5
X3.9Y-1.7
X3.9Y-2.2
X3.9Y-2.9
X3.9Y-3.0
X3.95Y-1.45
X3.95Y-1.55
X3.95Y-2.85
X3.95Y-2.95
X3.95Y-3.05
X4.0Y-1.6
X4.0Y-2.0
X4.05Y-1.55
X4.05Y-1.65
X4.1Y-1.45
X4.1Y-1.6
X4.1Y-1.7
X4.1Y-1.9
X4.1Y-2.0
X4.1Y-2.1
X4.1Y-2.4
X4.15Y-1.65
X4.15Y-1.75
X4.15Y-1.95
X4.15Y-2.05
X4.15Y-2.15
X4.15Y-2.45
X4.1992Y-2.3138
X4.2Y-1.45
X4.2Y-1.6
X4.2Y-1.7
X4.2Y-1.8
X4.2Y-2.0
X4.2Y-2.1
X4.2Y-2.4
X4.2Y-2.5
X4.25Y-1.65
X4.25Y-2.45
X4.25Y-2.55
X4.3Y-1.45
X4.3Y-1.6
X4.3Y-1.7
X4.35Y-1.65
X4.35Y-1.75
X4.35Y-1.85
X4.35Y-1.95
X4.35Y-2.05
X4.35Y-2.15
X4.35Y-2.25
X4.35Y-2.35
X4.35Y-2.45
X4.35Y-2.55
X4.35Y-2.65
T2
X3.2199Y-3.1437
X3.2199Y-3.2437
X3.3199Y-3.1437
X3.3199Y-3.2437
X3.4199Y-3.1437
X3.4199Y-3.2437
X3.5199Y-3.1437
X3.5199Y-3.2437
X3.6199Y-3.1437
X3.6199Y-3.2437
X3.7199Y-3.1437
X3.7199Y-3.2437
X3.8199Y-3.1437
X3.8199Y-3.2437
X3.9199Y-3.1437
X3.9199Y-3.2437
X4.0199Y-3.1437
X4.0199Y-3.2437
X4.1199Y-3.1437
X4.1199Y-3.2437
X4.2199Y-3.1437
X4.2199Y-3.2437
X4.3199Y-3.1437
X4.3199Y-3.2437
T3
X1.4457Y-2.1093
X1.4457Y-2.6407
T4
X1.6819Y-2.2333
X1.6819Y-2.5167
T0
M30
