%TF.GenerationSoftware,KiCad,Pcbnew,(7.0.0)*%
%TF.CreationDate,2023-02-15T20:10:10+09:00*%
%TF.ProjectId,_____,618744ac-c12e-46b6-9963-61645f706362,rev?*%
%TF.SameCoordinates,Original*%
%TF.FileFunction,Legend,Top*%
%TF.FilePolarity,Positive*%
%FSLAX46Y46*%
G04 Gerber Fmt 4.6, Leading zero omitted, Abs format (unit mm)*
G04 Created by KiCad (PCBNEW (7.0.0)) date 2023-02-15 20:10:10*
%MOMM*%
%LPD*%
G01*
G04 APERTURE LIST*
%ADD10C,0.500000*%
%ADD11C,0.254000*%
%ADD12C,0.150000*%
%ADD13C,0.120000*%
%ADD14C,0.200000*%
%ADD15C,0.100000*%
G04 APERTURE END LIST*
D10*
X101211904Y-38949523D02*
X101402380Y-39044761D01*
X101402380Y-39044761D02*
X101783332Y-39044761D01*
X101783332Y-39044761D02*
X101973809Y-38949523D01*
X101973809Y-38949523D02*
X102069047Y-38759047D01*
X102069047Y-38759047D02*
X102069047Y-38663809D01*
X102069047Y-38663809D02*
X101973809Y-38473333D01*
X101973809Y-38473333D02*
X101783332Y-38378095D01*
X101783332Y-38378095D02*
X101497618Y-38378095D01*
X101497618Y-38378095D02*
X101307142Y-38282857D01*
X101307142Y-38282857D02*
X101211904Y-38092380D01*
X101211904Y-38092380D02*
X101211904Y-37997142D01*
X101211904Y-37997142D02*
X101307142Y-37806666D01*
X101307142Y-37806666D02*
X101497618Y-37711428D01*
X101497618Y-37711428D02*
X101783332Y-37711428D01*
X101783332Y-37711428D02*
X101973809Y-37806666D01*
X102926190Y-38282857D02*
X104450000Y-38282857D01*
X105402380Y-39044761D02*
X105402380Y-37044761D01*
X105592856Y-38282857D02*
X106164285Y-39044761D01*
X106164285Y-37711428D02*
X105402380Y-38473333D01*
X107783333Y-38949523D02*
X107592857Y-39044761D01*
X107592857Y-39044761D02*
X107211904Y-39044761D01*
X107211904Y-39044761D02*
X107021428Y-38949523D01*
X107021428Y-38949523D02*
X106926190Y-38759047D01*
X106926190Y-38759047D02*
X106926190Y-37997142D01*
X106926190Y-37997142D02*
X107021428Y-37806666D01*
X107021428Y-37806666D02*
X107211904Y-37711428D01*
X107211904Y-37711428D02*
X107592857Y-37711428D01*
X107592857Y-37711428D02*
X107783333Y-37806666D01*
X107783333Y-37806666D02*
X107878571Y-37997142D01*
X107878571Y-37997142D02*
X107878571Y-38187619D01*
X107878571Y-38187619D02*
X106926190Y-38378095D01*
X108735714Y-37711428D02*
X108735714Y-39044761D01*
X108735714Y-37901904D02*
X108830952Y-37806666D01*
X108830952Y-37806666D02*
X109021428Y-37711428D01*
X109021428Y-37711428D02*
X109307143Y-37711428D01*
X109307143Y-37711428D02*
X109497619Y-37806666D01*
X109497619Y-37806666D02*
X109592857Y-37997142D01*
X109592857Y-37997142D02*
X109592857Y-39044761D01*
D11*
%TO.C,Q3*%
X73632526Y-50540952D02*
X73572050Y-50661904D01*
X73572050Y-50661904D02*
X73451097Y-50782857D01*
X73451097Y-50782857D02*
X73269669Y-50964285D01*
X73269669Y-50964285D02*
X73209192Y-51085238D01*
X73209192Y-51085238D02*
X73209192Y-51206190D01*
X73511573Y-51145714D02*
X73451097Y-51266666D01*
X73451097Y-51266666D02*
X73330145Y-51387619D01*
X73330145Y-51387619D02*
X73088240Y-51448095D01*
X73088240Y-51448095D02*
X72664907Y-51448095D01*
X72664907Y-51448095D02*
X72423002Y-51387619D01*
X72423002Y-51387619D02*
X72302050Y-51266666D01*
X72302050Y-51266666D02*
X72241573Y-51145714D01*
X72241573Y-51145714D02*
X72241573Y-50903809D01*
X72241573Y-50903809D02*
X72302050Y-50782857D01*
X72302050Y-50782857D02*
X72423002Y-50661904D01*
X72423002Y-50661904D02*
X72664907Y-50601428D01*
X72664907Y-50601428D02*
X73088240Y-50601428D01*
X73088240Y-50601428D02*
X73330145Y-50661904D01*
X73330145Y-50661904D02*
X73451097Y-50782857D01*
X73451097Y-50782857D02*
X73511573Y-50903809D01*
X73511573Y-50903809D02*
X73511573Y-51145714D01*
X72241573Y-50178095D02*
X72241573Y-49391904D01*
X72241573Y-49391904D02*
X72725383Y-49815238D01*
X72725383Y-49815238D02*
X72725383Y-49633809D01*
X72725383Y-49633809D02*
X72785859Y-49512857D01*
X72785859Y-49512857D02*
X72846335Y-49452381D01*
X72846335Y-49452381D02*
X72967288Y-49391904D01*
X72967288Y-49391904D02*
X73269669Y-49391904D01*
X73269669Y-49391904D02*
X73390621Y-49452381D01*
X73390621Y-49452381D02*
X73451097Y-49512857D01*
X73451097Y-49512857D02*
X73511573Y-49633809D01*
X73511573Y-49633809D02*
X73511573Y-49996666D01*
X73511573Y-49996666D02*
X73451097Y-50117619D01*
X73451097Y-50117619D02*
X73390621Y-50178095D01*
%TO.C,IC3*%
X103420237Y-69591573D02*
X103420237Y-68321573D01*
X104750714Y-69470621D02*
X104690238Y-69531097D01*
X104690238Y-69531097D02*
X104508809Y-69591573D01*
X104508809Y-69591573D02*
X104387857Y-69591573D01*
X104387857Y-69591573D02*
X104206428Y-69531097D01*
X104206428Y-69531097D02*
X104085476Y-69410145D01*
X104085476Y-69410145D02*
X104024999Y-69289192D01*
X104024999Y-69289192D02*
X103964523Y-69047288D01*
X103964523Y-69047288D02*
X103964523Y-68865859D01*
X103964523Y-68865859D02*
X104024999Y-68623954D01*
X104024999Y-68623954D02*
X104085476Y-68503002D01*
X104085476Y-68503002D02*
X104206428Y-68382050D01*
X104206428Y-68382050D02*
X104387857Y-68321573D01*
X104387857Y-68321573D02*
X104508809Y-68321573D01*
X104508809Y-68321573D02*
X104690238Y-68382050D01*
X104690238Y-68382050D02*
X104750714Y-68442526D01*
X105174047Y-68321573D02*
X105960238Y-68321573D01*
X105960238Y-68321573D02*
X105536904Y-68805383D01*
X105536904Y-68805383D02*
X105718333Y-68805383D01*
X105718333Y-68805383D02*
X105839285Y-68865859D01*
X105839285Y-68865859D02*
X105899761Y-68926335D01*
X105899761Y-68926335D02*
X105960238Y-69047288D01*
X105960238Y-69047288D02*
X105960238Y-69349669D01*
X105960238Y-69349669D02*
X105899761Y-69470621D01*
X105899761Y-69470621D02*
X105839285Y-69531097D01*
X105839285Y-69531097D02*
X105718333Y-69591573D01*
X105718333Y-69591573D02*
X105355476Y-69591573D01*
X105355476Y-69591573D02*
X105234523Y-69531097D01*
X105234523Y-69531097D02*
X105174047Y-69470621D01*
%TO.C,IC6*%
X37426573Y-79409762D02*
X36156573Y-79409762D01*
X37305621Y-78079285D02*
X37366097Y-78139761D01*
X37366097Y-78139761D02*
X37426573Y-78321190D01*
X37426573Y-78321190D02*
X37426573Y-78442142D01*
X37426573Y-78442142D02*
X37366097Y-78623571D01*
X37366097Y-78623571D02*
X37245145Y-78744523D01*
X37245145Y-78744523D02*
X37124192Y-78805000D01*
X37124192Y-78805000D02*
X36882288Y-78865476D01*
X36882288Y-78865476D02*
X36700859Y-78865476D01*
X36700859Y-78865476D02*
X36458954Y-78805000D01*
X36458954Y-78805000D02*
X36338002Y-78744523D01*
X36338002Y-78744523D02*
X36217050Y-78623571D01*
X36217050Y-78623571D02*
X36156573Y-78442142D01*
X36156573Y-78442142D02*
X36156573Y-78321190D01*
X36156573Y-78321190D02*
X36217050Y-78139761D01*
X36217050Y-78139761D02*
X36277526Y-78079285D01*
X36156573Y-76990714D02*
X36156573Y-77232619D01*
X36156573Y-77232619D02*
X36217050Y-77353571D01*
X36217050Y-77353571D02*
X36277526Y-77414047D01*
X36277526Y-77414047D02*
X36458954Y-77535000D01*
X36458954Y-77535000D02*
X36700859Y-77595476D01*
X36700859Y-77595476D02*
X37184669Y-77595476D01*
X37184669Y-77595476D02*
X37305621Y-77535000D01*
X37305621Y-77535000D02*
X37366097Y-77474523D01*
X37366097Y-77474523D02*
X37426573Y-77353571D01*
X37426573Y-77353571D02*
X37426573Y-77111666D01*
X37426573Y-77111666D02*
X37366097Y-76990714D01*
X37366097Y-76990714D02*
X37305621Y-76930238D01*
X37305621Y-76930238D02*
X37184669Y-76869761D01*
X37184669Y-76869761D02*
X36882288Y-76869761D01*
X36882288Y-76869761D02*
X36761335Y-76930238D01*
X36761335Y-76930238D02*
X36700859Y-76990714D01*
X36700859Y-76990714D02*
X36640383Y-77111666D01*
X36640383Y-77111666D02*
X36640383Y-77353571D01*
X36640383Y-77353571D02*
X36700859Y-77474523D01*
X36700859Y-77474523D02*
X36761335Y-77535000D01*
X36761335Y-77535000D02*
X36882288Y-77595476D01*
%TO.C,IC4*%
X103605237Y-57966573D02*
X103605237Y-56696573D01*
X104935714Y-57845621D02*
X104875238Y-57906097D01*
X104875238Y-57906097D02*
X104693809Y-57966573D01*
X104693809Y-57966573D02*
X104572857Y-57966573D01*
X104572857Y-57966573D02*
X104391428Y-57906097D01*
X104391428Y-57906097D02*
X104270476Y-57785145D01*
X104270476Y-57785145D02*
X104209999Y-57664192D01*
X104209999Y-57664192D02*
X104149523Y-57422288D01*
X104149523Y-57422288D02*
X104149523Y-57240859D01*
X104149523Y-57240859D02*
X104209999Y-56998954D01*
X104209999Y-56998954D02*
X104270476Y-56878002D01*
X104270476Y-56878002D02*
X104391428Y-56757050D01*
X104391428Y-56757050D02*
X104572857Y-56696573D01*
X104572857Y-56696573D02*
X104693809Y-56696573D01*
X104693809Y-56696573D02*
X104875238Y-56757050D01*
X104875238Y-56757050D02*
X104935714Y-56817526D01*
X106024285Y-57119907D02*
X106024285Y-57966573D01*
X105721904Y-56636097D02*
X105419523Y-57543240D01*
X105419523Y-57543240D02*
X106205714Y-57543240D01*
D12*
%TO.C,C8*%
X34533333Y-70392142D02*
X34485714Y-70439761D01*
X34485714Y-70439761D02*
X34342857Y-70487380D01*
X34342857Y-70487380D02*
X34247619Y-70487380D01*
X34247619Y-70487380D02*
X34104762Y-70439761D01*
X34104762Y-70439761D02*
X34009524Y-70344523D01*
X34009524Y-70344523D02*
X33961905Y-70249285D01*
X33961905Y-70249285D02*
X33914286Y-70058809D01*
X33914286Y-70058809D02*
X33914286Y-69915952D01*
X33914286Y-69915952D02*
X33961905Y-69725476D01*
X33961905Y-69725476D02*
X34009524Y-69630238D01*
X34009524Y-69630238D02*
X34104762Y-69535000D01*
X34104762Y-69535000D02*
X34247619Y-69487380D01*
X34247619Y-69487380D02*
X34342857Y-69487380D01*
X34342857Y-69487380D02*
X34485714Y-69535000D01*
X34485714Y-69535000D02*
X34533333Y-69582619D01*
X35104762Y-69915952D02*
X35009524Y-69868333D01*
X35009524Y-69868333D02*
X34961905Y-69820714D01*
X34961905Y-69820714D02*
X34914286Y-69725476D01*
X34914286Y-69725476D02*
X34914286Y-69677857D01*
X34914286Y-69677857D02*
X34961905Y-69582619D01*
X34961905Y-69582619D02*
X35009524Y-69535000D01*
X35009524Y-69535000D02*
X35104762Y-69487380D01*
X35104762Y-69487380D02*
X35295238Y-69487380D01*
X35295238Y-69487380D02*
X35390476Y-69535000D01*
X35390476Y-69535000D02*
X35438095Y-69582619D01*
X35438095Y-69582619D02*
X35485714Y-69677857D01*
X35485714Y-69677857D02*
X35485714Y-69725476D01*
X35485714Y-69725476D02*
X35438095Y-69820714D01*
X35438095Y-69820714D02*
X35390476Y-69868333D01*
X35390476Y-69868333D02*
X35295238Y-69915952D01*
X35295238Y-69915952D02*
X35104762Y-69915952D01*
X35104762Y-69915952D02*
X35009524Y-69963571D01*
X35009524Y-69963571D02*
X34961905Y-70011190D01*
X34961905Y-70011190D02*
X34914286Y-70106428D01*
X34914286Y-70106428D02*
X34914286Y-70296904D01*
X34914286Y-70296904D02*
X34961905Y-70392142D01*
X34961905Y-70392142D02*
X35009524Y-70439761D01*
X35009524Y-70439761D02*
X35104762Y-70487380D01*
X35104762Y-70487380D02*
X35295238Y-70487380D01*
X35295238Y-70487380D02*
X35390476Y-70439761D01*
X35390476Y-70439761D02*
X35438095Y-70392142D01*
X35438095Y-70392142D02*
X35485714Y-70296904D01*
X35485714Y-70296904D02*
X35485714Y-70106428D01*
X35485714Y-70106428D02*
X35438095Y-70011190D01*
X35438095Y-70011190D02*
X35390476Y-69963571D01*
X35390476Y-69963571D02*
X35295238Y-69915952D01*
%TO.C,D9*%
X85496548Y-38197380D02*
X85496548Y-37197380D01*
X85496548Y-37197380D02*
X85877500Y-37197380D01*
X85877500Y-37197380D02*
X85972738Y-37245000D01*
X85972738Y-37245000D02*
X86020357Y-37292619D01*
X86020357Y-37292619D02*
X86067976Y-37387857D01*
X86067976Y-37387857D02*
X86067976Y-37530714D01*
X86067976Y-37530714D02*
X86020357Y-37625952D01*
X86020357Y-37625952D02*
X85972738Y-37673571D01*
X85972738Y-37673571D02*
X85877500Y-37721190D01*
X85877500Y-37721190D02*
X85496548Y-37721190D01*
X86401310Y-37197380D02*
X86639405Y-38197380D01*
X86639405Y-38197380D02*
X86829881Y-37483095D01*
X86829881Y-37483095D02*
X87020357Y-38197380D01*
X87020357Y-38197380D02*
X87258453Y-37197380D01*
X87639405Y-38197380D02*
X87639405Y-37197380D01*
X87639405Y-37197380D02*
X87972738Y-37911666D01*
X87972738Y-37911666D02*
X88306071Y-37197380D01*
X88306071Y-37197380D02*
X88306071Y-38197380D01*
X88734643Y-37292619D02*
X88782262Y-37245000D01*
X88782262Y-37245000D02*
X88877500Y-37197380D01*
X88877500Y-37197380D02*
X89115595Y-37197380D01*
X89115595Y-37197380D02*
X89210833Y-37245000D01*
X89210833Y-37245000D02*
X89258452Y-37292619D01*
X89258452Y-37292619D02*
X89306071Y-37387857D01*
X89306071Y-37387857D02*
X89306071Y-37483095D01*
X89306071Y-37483095D02*
X89258452Y-37625952D01*
X89258452Y-37625952D02*
X88687024Y-38197380D01*
X88687024Y-38197380D02*
X89306071Y-38197380D01*
%TO.C,D10*%
X94146548Y-38137380D02*
X94146548Y-37137380D01*
X94146548Y-37137380D02*
X94527500Y-37137380D01*
X94527500Y-37137380D02*
X94622738Y-37185000D01*
X94622738Y-37185000D02*
X94670357Y-37232619D01*
X94670357Y-37232619D02*
X94717976Y-37327857D01*
X94717976Y-37327857D02*
X94717976Y-37470714D01*
X94717976Y-37470714D02*
X94670357Y-37565952D01*
X94670357Y-37565952D02*
X94622738Y-37613571D01*
X94622738Y-37613571D02*
X94527500Y-37661190D01*
X94527500Y-37661190D02*
X94146548Y-37661190D01*
X95051310Y-37137380D02*
X95289405Y-38137380D01*
X95289405Y-38137380D02*
X95479881Y-37423095D01*
X95479881Y-37423095D02*
X95670357Y-38137380D01*
X95670357Y-38137380D02*
X95908453Y-37137380D01*
X96289405Y-38137380D02*
X96289405Y-37137380D01*
X96289405Y-37137380D02*
X96622738Y-37851666D01*
X96622738Y-37851666D02*
X96956071Y-37137380D01*
X96956071Y-37137380D02*
X96956071Y-38137380D01*
X97956071Y-38137380D02*
X97384643Y-38137380D01*
X97670357Y-38137380D02*
X97670357Y-37137380D01*
X97670357Y-37137380D02*
X97575119Y-37280238D01*
X97575119Y-37280238D02*
X97479881Y-37375476D01*
X97479881Y-37375476D02*
X97384643Y-37423095D01*
D11*
%TO.C,Q2*%
X57577526Y-68700952D02*
X57517050Y-68821904D01*
X57517050Y-68821904D02*
X57396097Y-68942857D01*
X57396097Y-68942857D02*
X57214669Y-69124285D01*
X57214669Y-69124285D02*
X57154192Y-69245238D01*
X57154192Y-69245238D02*
X57154192Y-69366190D01*
X57456573Y-69305714D02*
X57396097Y-69426666D01*
X57396097Y-69426666D02*
X57275145Y-69547619D01*
X57275145Y-69547619D02*
X57033240Y-69608095D01*
X57033240Y-69608095D02*
X56609907Y-69608095D01*
X56609907Y-69608095D02*
X56368002Y-69547619D01*
X56368002Y-69547619D02*
X56247050Y-69426666D01*
X56247050Y-69426666D02*
X56186573Y-69305714D01*
X56186573Y-69305714D02*
X56186573Y-69063809D01*
X56186573Y-69063809D02*
X56247050Y-68942857D01*
X56247050Y-68942857D02*
X56368002Y-68821904D01*
X56368002Y-68821904D02*
X56609907Y-68761428D01*
X56609907Y-68761428D02*
X57033240Y-68761428D01*
X57033240Y-68761428D02*
X57275145Y-68821904D01*
X57275145Y-68821904D02*
X57396097Y-68942857D01*
X57396097Y-68942857D02*
X57456573Y-69063809D01*
X57456573Y-69063809D02*
X57456573Y-69305714D01*
X56307526Y-68277619D02*
X56247050Y-68217143D01*
X56247050Y-68217143D02*
X56186573Y-68096190D01*
X56186573Y-68096190D02*
X56186573Y-67793809D01*
X56186573Y-67793809D02*
X56247050Y-67672857D01*
X56247050Y-67672857D02*
X56307526Y-67612381D01*
X56307526Y-67612381D02*
X56428478Y-67551904D01*
X56428478Y-67551904D02*
X56549430Y-67551904D01*
X56549430Y-67551904D02*
X56730859Y-67612381D01*
X56730859Y-67612381D02*
X57456573Y-68338095D01*
X57456573Y-68338095D02*
X57456573Y-67551904D01*
D12*
%TO.C,D7*%
X29657380Y-78688094D02*
X28657380Y-78688094D01*
X28657380Y-78688094D02*
X28657380Y-78449999D01*
X28657380Y-78449999D02*
X28705000Y-78307142D01*
X28705000Y-78307142D02*
X28800238Y-78211904D01*
X28800238Y-78211904D02*
X28895476Y-78164285D01*
X28895476Y-78164285D02*
X29085952Y-78116666D01*
X29085952Y-78116666D02*
X29228809Y-78116666D01*
X29228809Y-78116666D02*
X29419285Y-78164285D01*
X29419285Y-78164285D02*
X29514523Y-78211904D01*
X29514523Y-78211904D02*
X29609761Y-78307142D01*
X29609761Y-78307142D02*
X29657380Y-78449999D01*
X29657380Y-78449999D02*
X29657380Y-78688094D01*
X28657380Y-77783332D02*
X28657380Y-77116666D01*
X28657380Y-77116666D02*
X29657380Y-77545237D01*
D11*
%TO.C,U2*%
X93372380Y-49361573D02*
X93372380Y-50389669D01*
X93372380Y-50389669D02*
X93432857Y-50510621D01*
X93432857Y-50510621D02*
X93493333Y-50571097D01*
X93493333Y-50571097D02*
X93614285Y-50631573D01*
X93614285Y-50631573D02*
X93856190Y-50631573D01*
X93856190Y-50631573D02*
X93977142Y-50571097D01*
X93977142Y-50571097D02*
X94037619Y-50510621D01*
X94037619Y-50510621D02*
X94098095Y-50389669D01*
X94098095Y-50389669D02*
X94098095Y-49361573D01*
X94642380Y-49482526D02*
X94702856Y-49422050D01*
X94702856Y-49422050D02*
X94823809Y-49361573D01*
X94823809Y-49361573D02*
X95126190Y-49361573D01*
X95126190Y-49361573D02*
X95247142Y-49422050D01*
X95247142Y-49422050D02*
X95307618Y-49482526D01*
X95307618Y-49482526D02*
X95368095Y-49603478D01*
X95368095Y-49603478D02*
X95368095Y-49724430D01*
X95368095Y-49724430D02*
X95307618Y-49905859D01*
X95307618Y-49905859D02*
X94581904Y-50631573D01*
X94581904Y-50631573D02*
X95368095Y-50631573D01*
D12*
%TO.C,D8*%
X89909048Y-37939761D02*
X90051905Y-37987380D01*
X90051905Y-37987380D02*
X90290000Y-37987380D01*
X90290000Y-37987380D02*
X90385238Y-37939761D01*
X90385238Y-37939761D02*
X90432857Y-37892142D01*
X90432857Y-37892142D02*
X90480476Y-37796904D01*
X90480476Y-37796904D02*
X90480476Y-37701666D01*
X90480476Y-37701666D02*
X90432857Y-37606428D01*
X90432857Y-37606428D02*
X90385238Y-37558809D01*
X90385238Y-37558809D02*
X90290000Y-37511190D01*
X90290000Y-37511190D02*
X90099524Y-37463571D01*
X90099524Y-37463571D02*
X90004286Y-37415952D01*
X90004286Y-37415952D02*
X89956667Y-37368333D01*
X89956667Y-37368333D02*
X89909048Y-37273095D01*
X89909048Y-37273095D02*
X89909048Y-37177857D01*
X89909048Y-37177857D02*
X89956667Y-37082619D01*
X89956667Y-37082619D02*
X90004286Y-37035000D01*
X90004286Y-37035000D02*
X90099524Y-36987380D01*
X90099524Y-36987380D02*
X90337619Y-36987380D01*
X90337619Y-36987380D02*
X90480476Y-37035000D01*
X90909048Y-37987380D02*
X90909048Y-36987380D01*
X90909048Y-36987380D02*
X91147143Y-36987380D01*
X91147143Y-36987380D02*
X91290000Y-37035000D01*
X91290000Y-37035000D02*
X91385238Y-37130238D01*
X91385238Y-37130238D02*
X91432857Y-37225476D01*
X91432857Y-37225476D02*
X91480476Y-37415952D01*
X91480476Y-37415952D02*
X91480476Y-37558809D01*
X91480476Y-37558809D02*
X91432857Y-37749285D01*
X91432857Y-37749285D02*
X91385238Y-37844523D01*
X91385238Y-37844523D02*
X91290000Y-37939761D01*
X91290000Y-37939761D02*
X91147143Y-37987380D01*
X91147143Y-37987380D02*
X90909048Y-37987380D01*
X91861429Y-37939761D02*
X91956667Y-37987380D01*
X91956667Y-37987380D02*
X92147143Y-37987380D01*
X92147143Y-37987380D02*
X92242381Y-37939761D01*
X92242381Y-37939761D02*
X92290000Y-37844523D01*
X92290000Y-37844523D02*
X92290000Y-37796904D01*
X92290000Y-37796904D02*
X92242381Y-37701666D01*
X92242381Y-37701666D02*
X92147143Y-37654047D01*
X92147143Y-37654047D02*
X92004286Y-37654047D01*
X92004286Y-37654047D02*
X91909048Y-37606428D01*
X91909048Y-37606428D02*
X91861429Y-37511190D01*
X91861429Y-37511190D02*
X91861429Y-37463571D01*
X91861429Y-37463571D02*
X91909048Y-37368333D01*
X91909048Y-37368333D02*
X92004286Y-37320714D01*
X92004286Y-37320714D02*
X92147143Y-37320714D01*
X92147143Y-37320714D02*
X92242381Y-37368333D01*
X92718572Y-37987380D02*
X92718572Y-37320714D01*
X92718572Y-36987380D02*
X92670953Y-37035000D01*
X92670953Y-37035000D02*
X92718572Y-37082619D01*
X92718572Y-37082619D02*
X92766191Y-37035000D01*
X92766191Y-37035000D02*
X92718572Y-36987380D01*
X92718572Y-36987380D02*
X92718572Y-37082619D01*
X93623333Y-37320714D02*
X93623333Y-38130238D01*
X93623333Y-38130238D02*
X93575714Y-38225476D01*
X93575714Y-38225476D02*
X93528095Y-38273095D01*
X93528095Y-38273095D02*
X93432857Y-38320714D01*
X93432857Y-38320714D02*
X93290000Y-38320714D01*
X93290000Y-38320714D02*
X93194762Y-38273095D01*
X93623333Y-37939761D02*
X93528095Y-37987380D01*
X93528095Y-37987380D02*
X93337619Y-37987380D01*
X93337619Y-37987380D02*
X93242381Y-37939761D01*
X93242381Y-37939761D02*
X93194762Y-37892142D01*
X93194762Y-37892142D02*
X93147143Y-37796904D01*
X93147143Y-37796904D02*
X93147143Y-37511190D01*
X93147143Y-37511190D02*
X93194762Y-37415952D01*
X93194762Y-37415952D02*
X93242381Y-37368333D01*
X93242381Y-37368333D02*
X93337619Y-37320714D01*
X93337619Y-37320714D02*
X93528095Y-37320714D01*
X93528095Y-37320714D02*
X93623333Y-37368333D01*
D11*
%TO.C,Q1*%
X73622526Y-66420952D02*
X73562050Y-66541904D01*
X73562050Y-66541904D02*
X73441097Y-66662857D01*
X73441097Y-66662857D02*
X73259669Y-66844285D01*
X73259669Y-66844285D02*
X73199192Y-66965238D01*
X73199192Y-66965238D02*
X73199192Y-67086190D01*
X73501573Y-67025714D02*
X73441097Y-67146666D01*
X73441097Y-67146666D02*
X73320145Y-67267619D01*
X73320145Y-67267619D02*
X73078240Y-67328095D01*
X73078240Y-67328095D02*
X72654907Y-67328095D01*
X72654907Y-67328095D02*
X72413002Y-67267619D01*
X72413002Y-67267619D02*
X72292050Y-67146666D01*
X72292050Y-67146666D02*
X72231573Y-67025714D01*
X72231573Y-67025714D02*
X72231573Y-66783809D01*
X72231573Y-66783809D02*
X72292050Y-66662857D01*
X72292050Y-66662857D02*
X72413002Y-66541904D01*
X72413002Y-66541904D02*
X72654907Y-66481428D01*
X72654907Y-66481428D02*
X73078240Y-66481428D01*
X73078240Y-66481428D02*
X73320145Y-66541904D01*
X73320145Y-66541904D02*
X73441097Y-66662857D01*
X73441097Y-66662857D02*
X73501573Y-66783809D01*
X73501573Y-66783809D02*
X73501573Y-67025714D01*
X73501573Y-65271904D02*
X73501573Y-65997619D01*
X73501573Y-65634762D02*
X72231573Y-65634762D01*
X72231573Y-65634762D02*
X72413002Y-65755714D01*
X72413002Y-65755714D02*
X72533954Y-65876666D01*
X72533954Y-65876666D02*
X72594430Y-65997619D01*
%TO.C,Q4*%
X57582526Y-52790952D02*
X57522050Y-52911904D01*
X57522050Y-52911904D02*
X57401097Y-53032857D01*
X57401097Y-53032857D02*
X57219669Y-53214285D01*
X57219669Y-53214285D02*
X57159192Y-53335238D01*
X57159192Y-53335238D02*
X57159192Y-53456190D01*
X57461573Y-53395714D02*
X57401097Y-53516666D01*
X57401097Y-53516666D02*
X57280145Y-53637619D01*
X57280145Y-53637619D02*
X57038240Y-53698095D01*
X57038240Y-53698095D02*
X56614907Y-53698095D01*
X56614907Y-53698095D02*
X56373002Y-53637619D01*
X56373002Y-53637619D02*
X56252050Y-53516666D01*
X56252050Y-53516666D02*
X56191573Y-53395714D01*
X56191573Y-53395714D02*
X56191573Y-53153809D01*
X56191573Y-53153809D02*
X56252050Y-53032857D01*
X56252050Y-53032857D02*
X56373002Y-52911904D01*
X56373002Y-52911904D02*
X56614907Y-52851428D01*
X56614907Y-52851428D02*
X57038240Y-52851428D01*
X57038240Y-52851428D02*
X57280145Y-52911904D01*
X57280145Y-52911904D02*
X57401097Y-53032857D01*
X57401097Y-53032857D02*
X57461573Y-53153809D01*
X57461573Y-53153809D02*
X57461573Y-53395714D01*
X56614907Y-51762857D02*
X57461573Y-51762857D01*
X56131097Y-52065238D02*
X57038240Y-52367619D01*
X57038240Y-52367619D02*
X57038240Y-51581428D01*
%TO.C,IC5*%
X103605237Y-46591573D02*
X103605237Y-45321573D01*
X104935714Y-46470621D02*
X104875238Y-46531097D01*
X104875238Y-46531097D02*
X104693809Y-46591573D01*
X104693809Y-46591573D02*
X104572857Y-46591573D01*
X104572857Y-46591573D02*
X104391428Y-46531097D01*
X104391428Y-46531097D02*
X104270476Y-46410145D01*
X104270476Y-46410145D02*
X104209999Y-46289192D01*
X104209999Y-46289192D02*
X104149523Y-46047288D01*
X104149523Y-46047288D02*
X104149523Y-45865859D01*
X104149523Y-45865859D02*
X104209999Y-45623954D01*
X104209999Y-45623954D02*
X104270476Y-45503002D01*
X104270476Y-45503002D02*
X104391428Y-45382050D01*
X104391428Y-45382050D02*
X104572857Y-45321573D01*
X104572857Y-45321573D02*
X104693809Y-45321573D01*
X104693809Y-45321573D02*
X104875238Y-45382050D01*
X104875238Y-45382050D02*
X104935714Y-45442526D01*
X106084761Y-45321573D02*
X105479999Y-45321573D01*
X105479999Y-45321573D02*
X105419523Y-45926335D01*
X105419523Y-45926335D02*
X105479999Y-45865859D01*
X105479999Y-45865859D02*
X105600952Y-45805383D01*
X105600952Y-45805383D02*
X105903333Y-45805383D01*
X105903333Y-45805383D02*
X106024285Y-45865859D01*
X106024285Y-45865859D02*
X106084761Y-45926335D01*
X106084761Y-45926335D02*
X106145238Y-46047288D01*
X106145238Y-46047288D02*
X106145238Y-46349669D01*
X106145238Y-46349669D02*
X106084761Y-46470621D01*
X106084761Y-46470621D02*
X106024285Y-46531097D01*
X106024285Y-46531097D02*
X105903333Y-46591573D01*
X105903333Y-46591573D02*
X105600952Y-46591573D01*
X105600952Y-46591573D02*
X105479999Y-46531097D01*
X105479999Y-46531097D02*
X105419523Y-46470621D01*
%TO.C,U1*%
X93372380Y-64601573D02*
X93372380Y-65629669D01*
X93372380Y-65629669D02*
X93432857Y-65750621D01*
X93432857Y-65750621D02*
X93493333Y-65811097D01*
X93493333Y-65811097D02*
X93614285Y-65871573D01*
X93614285Y-65871573D02*
X93856190Y-65871573D01*
X93856190Y-65871573D02*
X93977142Y-65811097D01*
X93977142Y-65811097D02*
X94037619Y-65750621D01*
X94037619Y-65750621D02*
X94098095Y-65629669D01*
X94098095Y-65629669D02*
X94098095Y-64601573D01*
X95368095Y-65871573D02*
X94642380Y-65871573D01*
X95005237Y-65871573D02*
X95005237Y-64601573D01*
X95005237Y-64601573D02*
X94884285Y-64783002D01*
X94884285Y-64783002D02*
X94763333Y-64903954D01*
X94763333Y-64903954D02*
X94642380Y-64964430D01*
D12*
%TO.C,C11*%
X67732142Y-86322857D02*
X67779761Y-86370476D01*
X67779761Y-86370476D02*
X67827380Y-86513333D01*
X67827380Y-86513333D02*
X67827380Y-86608571D01*
X67827380Y-86608571D02*
X67779761Y-86751428D01*
X67779761Y-86751428D02*
X67684523Y-86846666D01*
X67684523Y-86846666D02*
X67589285Y-86894285D01*
X67589285Y-86894285D02*
X67398809Y-86941904D01*
X67398809Y-86941904D02*
X67255952Y-86941904D01*
X67255952Y-86941904D02*
X67065476Y-86894285D01*
X67065476Y-86894285D02*
X66970238Y-86846666D01*
X66970238Y-86846666D02*
X66875000Y-86751428D01*
X66875000Y-86751428D02*
X66827380Y-86608571D01*
X66827380Y-86608571D02*
X66827380Y-86513333D01*
X66827380Y-86513333D02*
X66875000Y-86370476D01*
X66875000Y-86370476D02*
X66922619Y-86322857D01*
X67827380Y-85370476D02*
X67827380Y-85941904D01*
X67827380Y-85656190D02*
X66827380Y-85656190D01*
X66827380Y-85656190D02*
X66970238Y-85751428D01*
X66970238Y-85751428D02*
X67065476Y-85846666D01*
X67065476Y-85846666D02*
X67113095Y-85941904D01*
X67827380Y-84418095D02*
X67827380Y-84989523D01*
X67827380Y-84703809D02*
X66827380Y-84703809D01*
X66827380Y-84703809D02*
X66970238Y-84799047D01*
X66970238Y-84799047D02*
X67065476Y-84894285D01*
X67065476Y-84894285D02*
X67113095Y-84989523D01*
%TO.C,C10*%
X55062142Y-86292857D02*
X55109761Y-86340476D01*
X55109761Y-86340476D02*
X55157380Y-86483333D01*
X55157380Y-86483333D02*
X55157380Y-86578571D01*
X55157380Y-86578571D02*
X55109761Y-86721428D01*
X55109761Y-86721428D02*
X55014523Y-86816666D01*
X55014523Y-86816666D02*
X54919285Y-86864285D01*
X54919285Y-86864285D02*
X54728809Y-86911904D01*
X54728809Y-86911904D02*
X54585952Y-86911904D01*
X54585952Y-86911904D02*
X54395476Y-86864285D01*
X54395476Y-86864285D02*
X54300238Y-86816666D01*
X54300238Y-86816666D02*
X54205000Y-86721428D01*
X54205000Y-86721428D02*
X54157380Y-86578571D01*
X54157380Y-86578571D02*
X54157380Y-86483333D01*
X54157380Y-86483333D02*
X54205000Y-86340476D01*
X54205000Y-86340476D02*
X54252619Y-86292857D01*
X55157380Y-85340476D02*
X55157380Y-85911904D01*
X55157380Y-85626190D02*
X54157380Y-85626190D01*
X54157380Y-85626190D02*
X54300238Y-85721428D01*
X54300238Y-85721428D02*
X54395476Y-85816666D01*
X54395476Y-85816666D02*
X54443095Y-85911904D01*
X54157380Y-84721428D02*
X54157380Y-84626190D01*
X54157380Y-84626190D02*
X54205000Y-84530952D01*
X54205000Y-84530952D02*
X54252619Y-84483333D01*
X54252619Y-84483333D02*
X54347857Y-84435714D01*
X54347857Y-84435714D02*
X54538333Y-84388095D01*
X54538333Y-84388095D02*
X54776428Y-84388095D01*
X54776428Y-84388095D02*
X54966904Y-84435714D01*
X54966904Y-84435714D02*
X55062142Y-84483333D01*
X55062142Y-84483333D02*
X55109761Y-84530952D01*
X55109761Y-84530952D02*
X55157380Y-84626190D01*
X55157380Y-84626190D02*
X55157380Y-84721428D01*
X55157380Y-84721428D02*
X55109761Y-84816666D01*
X55109761Y-84816666D02*
X55062142Y-84864285D01*
X55062142Y-84864285D02*
X54966904Y-84911904D01*
X54966904Y-84911904D02*
X54776428Y-84959523D01*
X54776428Y-84959523D02*
X54538333Y-84959523D01*
X54538333Y-84959523D02*
X54347857Y-84911904D01*
X54347857Y-84911904D02*
X54252619Y-84864285D01*
X54252619Y-84864285D02*
X54205000Y-84816666D01*
X54205000Y-84816666D02*
X54157380Y-84721428D01*
%TO.C,C9*%
X33483333Y-82902142D02*
X33435714Y-82949761D01*
X33435714Y-82949761D02*
X33292857Y-82997380D01*
X33292857Y-82997380D02*
X33197619Y-82997380D01*
X33197619Y-82997380D02*
X33054762Y-82949761D01*
X33054762Y-82949761D02*
X32959524Y-82854523D01*
X32959524Y-82854523D02*
X32911905Y-82759285D01*
X32911905Y-82759285D02*
X32864286Y-82568809D01*
X32864286Y-82568809D02*
X32864286Y-82425952D01*
X32864286Y-82425952D02*
X32911905Y-82235476D01*
X32911905Y-82235476D02*
X32959524Y-82140238D01*
X32959524Y-82140238D02*
X33054762Y-82045000D01*
X33054762Y-82045000D02*
X33197619Y-81997380D01*
X33197619Y-81997380D02*
X33292857Y-81997380D01*
X33292857Y-81997380D02*
X33435714Y-82045000D01*
X33435714Y-82045000D02*
X33483333Y-82092619D01*
X33959524Y-82997380D02*
X34150000Y-82997380D01*
X34150000Y-82997380D02*
X34245238Y-82949761D01*
X34245238Y-82949761D02*
X34292857Y-82902142D01*
X34292857Y-82902142D02*
X34388095Y-82759285D01*
X34388095Y-82759285D02*
X34435714Y-82568809D01*
X34435714Y-82568809D02*
X34435714Y-82187857D01*
X34435714Y-82187857D02*
X34388095Y-82092619D01*
X34388095Y-82092619D02*
X34340476Y-82045000D01*
X34340476Y-82045000D02*
X34245238Y-81997380D01*
X34245238Y-81997380D02*
X34054762Y-81997380D01*
X34054762Y-81997380D02*
X33959524Y-82045000D01*
X33959524Y-82045000D02*
X33911905Y-82092619D01*
X33911905Y-82092619D02*
X33864286Y-82187857D01*
X33864286Y-82187857D02*
X33864286Y-82425952D01*
X33864286Y-82425952D02*
X33911905Y-82521190D01*
X33911905Y-82521190D02*
X33959524Y-82568809D01*
X33959524Y-82568809D02*
X34054762Y-82616428D01*
X34054762Y-82616428D02*
X34245238Y-82616428D01*
X34245238Y-82616428D02*
X34340476Y-82568809D01*
X34340476Y-82568809D02*
X34388095Y-82521190D01*
X34388095Y-82521190D02*
X34435714Y-82425952D01*
D11*
%TO.C,J1*%
X34753573Y-60748332D02*
X35660716Y-60748332D01*
X35660716Y-60748332D02*
X35842145Y-60808809D01*
X35842145Y-60808809D02*
X35963097Y-60929761D01*
X35963097Y-60929761D02*
X36023573Y-61111190D01*
X36023573Y-61111190D02*
X36023573Y-61232142D01*
X36023573Y-59478332D02*
X36023573Y-60204047D01*
X36023573Y-59841190D02*
X34753573Y-59841190D01*
X34753573Y-59841190D02*
X34935002Y-59962142D01*
X34935002Y-59962142D02*
X35055954Y-60083094D01*
X35055954Y-60083094D02*
X35116430Y-60204047D01*
D13*
%TO.C,R1*%
X47047500Y-37617258D02*
X47047500Y-37142742D01*
X48092500Y-37617258D02*
X48092500Y-37142742D01*
%TO.C,C7*%
X41097500Y-43580580D02*
X41097500Y-43299420D01*
X42117500Y-43580580D02*
X42117500Y-43299420D01*
D14*
%TO.C,Q3*%
X71345000Y-45370000D02*
X70045000Y-45370000D01*
X70045000Y-45370000D02*
X70045000Y-55470000D01*
D15*
X67620000Y-48120000D02*
X67620000Y-48120000D01*
X67520000Y-48120000D02*
X67520000Y-48120000D01*
D14*
X70045000Y-55470000D02*
X71345000Y-55470000D01*
D15*
X67520000Y-48120000D02*
G75*
G03*
X67620000Y-48120000I50000J0D01*
G01*
X67620000Y-48120000D02*
G75*
G03*
X67520000Y-48120000I-50000J0D01*
G01*
D13*
%TO.C,J2*%
X110995000Y-78580000D02*
X110995000Y-79850000D01*
X109725000Y-78580000D02*
X110995000Y-78580000D01*
X107565000Y-80892929D02*
X107565000Y-81347071D01*
X106805000Y-80892929D02*
X106805000Y-81347071D01*
X105025000Y-80892929D02*
X105025000Y-81347071D01*
X104265000Y-80892929D02*
X104265000Y-81347071D01*
X102485000Y-80892929D02*
X102485000Y-81347071D01*
X101725000Y-80892929D02*
X101725000Y-81347071D01*
X99945000Y-80892929D02*
X99945000Y-81347071D01*
X99185000Y-80892929D02*
X99185000Y-81347071D01*
X97405000Y-80892929D02*
X97405000Y-81347071D01*
X96645000Y-80892929D02*
X96645000Y-81347071D01*
X94865000Y-80892929D02*
X94865000Y-81347071D01*
X94105000Y-80892929D02*
X94105000Y-81347071D01*
X92325000Y-80892929D02*
X92325000Y-81347071D01*
X91565000Y-80892929D02*
X91565000Y-81347071D01*
X89785000Y-80892929D02*
X89785000Y-81347071D01*
X89025000Y-80892929D02*
X89025000Y-81347071D01*
X87245000Y-80892929D02*
X87245000Y-81347071D01*
X86485000Y-80892929D02*
X86485000Y-81347071D01*
X84705000Y-80892929D02*
X84705000Y-81347071D01*
X83945000Y-80892929D02*
X83945000Y-81347071D01*
X82165000Y-80892929D02*
X82165000Y-81347071D01*
X81405000Y-80892929D02*
X81405000Y-81347071D01*
X110105000Y-80960000D02*
X110105000Y-81347071D01*
X109345000Y-80960000D02*
X109345000Y-81347071D01*
X110105000Y-83432929D02*
X110105000Y-83830000D01*
X109345000Y-83432929D02*
X109345000Y-83830000D01*
X107565000Y-83432929D02*
X107565000Y-83830000D01*
X106805000Y-83432929D02*
X106805000Y-83830000D01*
X105025000Y-83432929D02*
X105025000Y-83830000D01*
X104265000Y-83432929D02*
X104265000Y-83830000D01*
X102485000Y-83432929D02*
X102485000Y-83830000D01*
X101725000Y-83432929D02*
X101725000Y-83830000D01*
X99945000Y-83432929D02*
X99945000Y-83830000D01*
X99185000Y-83432929D02*
X99185000Y-83830000D01*
X97405000Y-83432929D02*
X97405000Y-83830000D01*
X96645000Y-83432929D02*
X96645000Y-83830000D01*
X94865000Y-83432929D02*
X94865000Y-83830000D01*
X94105000Y-83432929D02*
X94105000Y-83830000D01*
X92325000Y-83432929D02*
X92325000Y-83830000D01*
X91565000Y-83432929D02*
X91565000Y-83830000D01*
X89785000Y-83432929D02*
X89785000Y-83830000D01*
X89025000Y-83432929D02*
X89025000Y-83830000D01*
X87245000Y-83432929D02*
X87245000Y-83830000D01*
X86485000Y-83432929D02*
X86485000Y-83830000D01*
X84705000Y-83432929D02*
X84705000Y-83830000D01*
X83945000Y-83432929D02*
X83945000Y-83830000D01*
X82165000Y-83432929D02*
X82165000Y-83830000D01*
X81405000Y-83432929D02*
X81405000Y-83830000D01*
X111055000Y-83830000D02*
X80455000Y-83830000D01*
X108455000Y-83830000D02*
X108455000Y-86490000D01*
X105915000Y-83830000D02*
X105915000Y-86490000D01*
X103375000Y-83830000D02*
X103375000Y-86490000D01*
X100835000Y-83830000D02*
X100835000Y-86490000D01*
X98295000Y-83830000D02*
X98295000Y-86490000D01*
X95755000Y-83830000D02*
X95755000Y-86490000D01*
X93215000Y-83830000D02*
X93215000Y-86490000D01*
X90675000Y-83830000D02*
X90675000Y-86490000D01*
X88135000Y-83830000D02*
X88135000Y-86490000D01*
X85595000Y-83830000D02*
X85595000Y-86490000D01*
X83055000Y-83830000D02*
X83055000Y-86490000D01*
X80455000Y-83830000D02*
X80455000Y-86490000D01*
X111055000Y-86490000D02*
X111055000Y-83830000D01*
X110105000Y-86490000D02*
X110105000Y-92490000D01*
X110045000Y-86490000D02*
X110045000Y-92490000D01*
X109925000Y-86490000D02*
X109925000Y-92490000D01*
X109805000Y-86490000D02*
X109805000Y-92490000D01*
X109685000Y-86490000D02*
X109685000Y-92490000D01*
X109565000Y-86490000D02*
X109565000Y-92490000D01*
X109445000Y-86490000D02*
X109445000Y-92490000D01*
X107565000Y-86490000D02*
X107565000Y-92490000D01*
X105025000Y-86490000D02*
X105025000Y-92490000D01*
X102485000Y-86490000D02*
X102485000Y-92490000D01*
X99945000Y-86490000D02*
X99945000Y-92490000D01*
X97405000Y-86490000D02*
X97405000Y-92490000D01*
X94865000Y-86490000D02*
X94865000Y-92490000D01*
X92325000Y-86490000D02*
X92325000Y-92490000D01*
X89785000Y-86490000D02*
X89785000Y-92490000D01*
X87245000Y-86490000D02*
X87245000Y-92490000D01*
X84705000Y-86490000D02*
X84705000Y-92490000D01*
X82165000Y-86490000D02*
X82165000Y-92490000D01*
X80455000Y-86490000D02*
X111055000Y-86490000D01*
X110105000Y-92490000D02*
X109345000Y-92490000D01*
X109345000Y-92490000D02*
X109345000Y-86490000D01*
X107565000Y-92490000D02*
X106805000Y-92490000D01*
X106805000Y-92490000D02*
X106805000Y-86490000D01*
X105025000Y-92490000D02*
X104265000Y-92490000D01*
X104265000Y-92490000D02*
X104265000Y-86490000D01*
X102485000Y-92490000D02*
X101725000Y-92490000D01*
X101725000Y-92490000D02*
X101725000Y-86490000D01*
X99945000Y-92490000D02*
X99185000Y-92490000D01*
X99185000Y-92490000D02*
X99185000Y-86490000D01*
X97405000Y-92490000D02*
X96645000Y-92490000D01*
X96645000Y-92490000D02*
X96645000Y-86490000D01*
X94865000Y-92490000D02*
X94105000Y-92490000D01*
X94105000Y-92490000D02*
X94105000Y-86490000D01*
X92325000Y-92490000D02*
X91565000Y-92490000D01*
X91565000Y-92490000D02*
X91565000Y-86490000D01*
X89785000Y-92490000D02*
X89025000Y-92490000D01*
X89025000Y-92490000D02*
X89025000Y-86490000D01*
X87245000Y-92490000D02*
X86485000Y-92490000D01*
X86485000Y-92490000D02*
X86485000Y-86490000D01*
X84705000Y-92490000D02*
X83945000Y-92490000D01*
X83945000Y-92490000D02*
X83945000Y-86490000D01*
X82165000Y-92490000D02*
X81405000Y-92490000D01*
X81405000Y-92490000D02*
X81405000Y-86490000D01*
%TO.C,D6*%
X27247500Y-45100000D02*
X27247500Y-46570000D01*
X27247500Y-46570000D02*
X29532500Y-46570000D01*
X29532500Y-45100000D02*
X27247500Y-45100000D01*
%TO.C,R2*%
X50047500Y-37607258D02*
X50047500Y-37132742D01*
X51092500Y-37607258D02*
X51092500Y-37132742D01*
D14*
%TO.C,IC3*%
X108735000Y-71095000D02*
X107085000Y-71095000D01*
X106735000Y-71000000D02*
X102585000Y-71000000D01*
X106735000Y-67250000D02*
X106735000Y-71000000D01*
X102585000Y-71000000D02*
X102585000Y-67250000D01*
X102585000Y-67250000D02*
X106735000Y-67250000D01*
D13*
%TO.C,R9*%
X49947500Y-42077258D02*
X49947500Y-41602742D01*
X50992500Y-42077258D02*
X50992500Y-41602742D01*
D14*
%TO.C,IC6*%
X38760000Y-74880000D02*
X32720000Y-74880000D01*
X32720000Y-74880000D02*
X32720000Y-81460000D01*
X32720000Y-81460000D02*
X38760000Y-81460000D01*
D13*
%TO.C,R8*%
X46947500Y-42017258D02*
X46947500Y-41542742D01*
X47992500Y-42017258D02*
X47992500Y-41542742D01*
%TO.C,R6*%
X62397500Y-37527258D02*
X62397500Y-37052742D01*
X63442500Y-37527258D02*
X63442500Y-37052742D01*
D14*
%TO.C,IC4*%
X108920000Y-59470000D02*
X107270000Y-59470000D01*
X106920000Y-59375000D02*
X102770000Y-59375000D01*
X106920000Y-55625000D02*
X106920000Y-59375000D01*
X102770000Y-59375000D02*
X102770000Y-55625000D01*
X102770000Y-55625000D02*
X106920000Y-55625000D01*
D13*
%TO.C,D4*%
X39392500Y-37665000D02*
X37922500Y-37665000D01*
X37922500Y-37665000D02*
X37922500Y-39950000D01*
X39392500Y-39950000D02*
X39392500Y-37665000D01*
%TO.C,C8*%
X34559420Y-71040000D02*
X34840580Y-71040000D01*
X34559420Y-72060000D02*
X34840580Y-72060000D01*
%TO.C,D9*%
X85892500Y-38485000D02*
X85892500Y-39955000D01*
X85892500Y-39955000D02*
X88177500Y-39955000D01*
X88177500Y-38485000D02*
X85892500Y-38485000D01*
%TO.C,C3*%
X28261248Y-37345000D02*
X29683752Y-37345000D01*
X28261248Y-39165000D02*
X29683752Y-39165000D01*
%TO.C,R12*%
X59087500Y-42147258D02*
X59087500Y-41672742D01*
X60132500Y-42147258D02*
X60132500Y-41672742D01*
%TO.C,C1*%
X28301252Y-84980000D02*
X26878748Y-84980000D01*
X28301252Y-83160000D02*
X26878748Y-83160000D01*
%TO.C,D3*%
X33432500Y-36835000D02*
X33432500Y-38305000D01*
X33432500Y-38305000D02*
X35717500Y-38305000D01*
X35717500Y-36835000D02*
X33432500Y-36835000D01*
%TO.C,D5*%
X33372500Y-45585000D02*
X33372500Y-47055000D01*
X33372500Y-47055000D02*
X35657500Y-47055000D01*
X35657500Y-45585000D02*
X33372500Y-45585000D01*
%TO.C,D10*%
X94572500Y-38485000D02*
X94572500Y-39955000D01*
X94572500Y-39955000D02*
X96857500Y-39955000D01*
X96857500Y-38485000D02*
X94572500Y-38485000D01*
D14*
%TO.C,Q2*%
X58690000Y-73630000D02*
X59990000Y-73630000D01*
X59990000Y-73630000D02*
X59990000Y-63530000D01*
D15*
X62415000Y-70880000D02*
X62415000Y-70880000D01*
X62515000Y-70880000D02*
X62515000Y-70880000D01*
D14*
X59990000Y-63530000D02*
X58690000Y-63530000D01*
D15*
X62515000Y-70880000D02*
G75*
G03*
X62415000Y-70880000I-50000J0D01*
G01*
X62415000Y-70880000D02*
G75*
G03*
X62515000Y-70880000I50000J0D01*
G01*
D13*
%TO.C,D2*%
X36322500Y-44065000D02*
X36322500Y-42595000D01*
X36322500Y-42595000D02*
X34037500Y-42595000D01*
X34037500Y-44065000D02*
X36322500Y-44065000D01*
%TO.C,D1*%
X33385000Y-39735000D02*
X33385000Y-41205000D01*
X33385000Y-41205000D02*
X35670000Y-41205000D01*
X35670000Y-39735000D02*
X33385000Y-39735000D01*
%TO.C,R5*%
X59227500Y-37567258D02*
X59227500Y-37092742D01*
X60272500Y-37567258D02*
X60272500Y-37092742D01*
%TO.C,C6*%
X38157500Y-43565580D02*
X38157500Y-43284420D01*
X39177500Y-43565580D02*
X39177500Y-43284420D01*
%TO.C,D7*%
X28595000Y-76465000D02*
X27125000Y-76465000D01*
X27125000Y-76465000D02*
X27125000Y-78750000D01*
X28595000Y-78750000D02*
X28595000Y-76465000D01*
%TO.C,R3*%
X53047500Y-37597258D02*
X53047500Y-37122742D01*
X54092500Y-37597258D02*
X54092500Y-37122742D01*
D14*
%TO.C,U2*%
X97815000Y-52770000D02*
X96290000Y-52770000D01*
X95940000Y-52615000D02*
X92740000Y-52615000D01*
X95940000Y-47715000D02*
X95940000Y-52615000D01*
X92740000Y-52615000D02*
X92740000Y-47715000D01*
X92740000Y-47715000D02*
X95940000Y-47715000D01*
D13*
%TO.C,R11*%
X55967500Y-42052258D02*
X55967500Y-41577742D01*
X57012500Y-42052258D02*
X57012500Y-41577742D01*
%TO.C,D8*%
X90285000Y-38485000D02*
X90285000Y-39955000D01*
X90285000Y-39955000D02*
X92570000Y-39955000D01*
X92570000Y-38485000D02*
X90285000Y-38485000D01*
D14*
%TO.C,Q1*%
X71335000Y-61250000D02*
X70035000Y-61250000D01*
X70035000Y-61250000D02*
X70035000Y-71350000D01*
D15*
X67610000Y-64000000D02*
X67610000Y-64000000D01*
X67510000Y-64000000D02*
X67510000Y-64000000D01*
D14*
X70035000Y-71350000D02*
X71335000Y-71350000D01*
D15*
X67510000Y-64000000D02*
G75*
G03*
X67610000Y-64000000I50000J0D01*
G01*
X67610000Y-64000000D02*
G75*
G03*
X67510000Y-64000000I-50000J0D01*
G01*
D14*
%TO.C,Q4*%
X58695000Y-57720000D02*
X59995000Y-57720000D01*
X59995000Y-57720000D02*
X59995000Y-47620000D01*
D15*
X62420000Y-54970000D02*
X62420000Y-54970000D01*
X62520000Y-54970000D02*
X62520000Y-54970000D01*
D14*
X59995000Y-47620000D02*
X58695000Y-47620000D01*
D15*
X62520000Y-54970000D02*
G75*
G03*
X62420000Y-54970000I-50000J0D01*
G01*
X62420000Y-54970000D02*
G75*
G03*
X62520000Y-54970000I50000J0D01*
G01*
D13*
%TO.C,R7*%
X65307500Y-37547258D02*
X65307500Y-37072742D01*
X66352500Y-37547258D02*
X66352500Y-37072742D01*
D14*
%TO.C,IC5*%
X108920000Y-48095000D02*
X107270000Y-48095000D01*
X106920000Y-48000000D02*
X102770000Y-48000000D01*
X106920000Y-44250000D02*
X106920000Y-48000000D01*
X102770000Y-48000000D02*
X102770000Y-44250000D01*
X102770000Y-44250000D02*
X106920000Y-44250000D01*
D13*
%TO.C,R10*%
X52937500Y-42147258D02*
X52937500Y-41672742D01*
X53982500Y-42147258D02*
X53982500Y-41672742D01*
D14*
%TO.C,U1*%
X90865000Y-62800000D02*
X92390000Y-62800000D01*
X92740000Y-62955000D02*
X95940000Y-62955000D01*
X92740000Y-67855000D02*
X92740000Y-62955000D01*
X95940000Y-62955000D02*
X95940000Y-67855000D01*
X95940000Y-67855000D02*
X92740000Y-67855000D01*
D13*
%TO.C,R4*%
X56177500Y-37572258D02*
X56177500Y-37097742D01*
X57222500Y-37572258D02*
X57222500Y-37097742D01*
%TO.C,C11*%
X69464437Y-90940000D02*
X72350000Y-90940000D01*
X69464437Y-90940000D02*
X68400000Y-89875563D01*
X77855563Y-90940000D02*
X74970000Y-90940000D01*
X77855563Y-90940000D02*
X78920000Y-89875563D01*
X68400000Y-89875563D02*
X68400000Y-80420000D01*
X78920000Y-89875563D02*
X78920000Y-80420000D01*
X68400000Y-80420000D02*
X72350000Y-80420000D01*
X78920000Y-80420000D02*
X74970000Y-80420000D01*
%TO.C,C10*%
X56794437Y-90910000D02*
X59680000Y-90910000D01*
X56794437Y-90910000D02*
X55730000Y-89845563D01*
X65185563Y-90910000D02*
X62300000Y-90910000D01*
X65185563Y-90910000D02*
X66250000Y-89845563D01*
X55730000Y-89845563D02*
X55730000Y-80390000D01*
X66250000Y-89845563D02*
X66250000Y-80390000D01*
X55730000Y-80390000D02*
X59680000Y-80390000D01*
X66250000Y-80390000D02*
X62300000Y-80390000D01*
%TO.C,C9*%
X29212500Y-85132500D02*
X30000000Y-85132500D01*
X29606250Y-84738750D02*
X29606250Y-85526250D01*
X30240000Y-84634437D02*
X30240000Y-85920000D01*
X30240000Y-84634437D02*
X31304437Y-83570000D01*
X30240000Y-89325563D02*
X30240000Y-88040000D01*
X30240000Y-89325563D02*
X31304437Y-90390000D01*
X31304437Y-83570000D02*
X37060000Y-83570000D01*
X31304437Y-90390000D02*
X37060000Y-90390000D01*
X37060000Y-83570000D02*
X37060000Y-85920000D01*
X37060000Y-90390000D02*
X37060000Y-88040000D01*
D15*
%TO.C,J1*%
X26370000Y-68075000D02*
X26370000Y-52575000D01*
X35720000Y-68075000D02*
X26370000Y-68075000D01*
X39720000Y-68075000D02*
X44570000Y-68075000D01*
X44570000Y-68075000D02*
X44570000Y-65925000D01*
X44570000Y-54925000D02*
X44570000Y-52575000D01*
X26370000Y-52575000D02*
X35720000Y-52575000D01*
X44570000Y-52575000D02*
X39720000Y-52575000D01*
D13*
%TO.C,C5*%
X40211920Y-45880000D02*
X40493080Y-45880000D01*
X40211920Y-46900000D02*
X40493080Y-46900000D01*
%TO.C,R13*%
X62017500Y-42237258D02*
X62017500Y-41762742D01*
X63062500Y-42237258D02*
X63062500Y-41762742D01*
%TO.C,C2*%
X28301252Y-90260000D02*
X26878748Y-90260000D01*
X28301252Y-88440000D02*
X26878748Y-88440000D01*
%TO.C,C4*%
X28196248Y-41020000D02*
X29618752Y-41020000D01*
X28196248Y-42840000D02*
X29618752Y-42840000D01*
%TO.C,R14*%
X65097500Y-42182258D02*
X65097500Y-41707742D01*
X66142500Y-42182258D02*
X66142500Y-41707742D01*
%TD*%
M02*
